<svg xmlns="http://www.w3.org/2000/svg" viewBox="0 0 560 460"><rect width="560" height="460" rx="28" fill="#dfe8f3"/><circle cx="420" cy="120" r="70" fill="#f2b134" opacity=".35"/><rect x="0" y="360" width="560" height="100" fill="#c9d6e6"/><rect x="60" y="250" width="440" height="14" rx="7" fill="#15233b"/><rect x="90" y="264" width="10" height="96" fill="#15233b"/><rect x="460" y="264" width="10" height="96" fill="#15233b"/><path d="M130 110h80l16 70h-112z" fill="#f2b134"/><rect x="166" y="180" width="8" height="52" fill="#15233b"/><rect x="140" y="230" width="60" height="20" rx="8" fill="#15233b"/><rect x="290" y="198" width="56" height="52" rx="10" fill="#fff"/><path d="M346 210c22 0 22 28 0 28" fill="none" stroke="#fff" stroke-width="8"/><path d="M308 188c-8-14 8-18 0-32M326 188c-8-14 8-18 0-32" fill="none" stroke="#15233b" stroke-width="4" stroke-linecap="round" opacity=".5"/><rect x="390" y="210" width="60" height="40" rx="4" fill="#e4572e"/><rect x="396" y="222" width="48" height="4" fill="#fff" opacity=".7"/><path d="M420 360c-60-20-70-90-30-120 40 10 55 70 30 120zm0 0c50-10 80-60 60-100-40 0-70 50-60 100z" fill="#2f7d6d"/><rect x="398" y="340" width="44" height="56" rx="8" fill="#15233b"/></svg>
